<svg width="9" height="8" viewBox="0 0 9 8" fill="none" xmlns="http://www.w3.org/2000/svg">
<path d="M14.9707 2.63198C14.934 2.41931 14.8314 2.24148 14.6627 2.09848C14.494 1.95548 14.2997 1.88398 14.0797 1.88398C12.723 1.89131 11.4085 2.12965 10.1362 2.59898C8.86386 3.06831 7.70703 3.73931 6.66569 4.61198C6.60703 3.84198 6.39436 3.11598 6.02769 2.43398C5.78569 1.97198 5.48503 1.55031 5.12569 1.16898C4.76636 0.787647 4.35936 0.461314 3.90469 0.189981C3.72136 0.0799805 3.52886 0.0396469 3.32719 0.0689802C3.12553 0.0983136 2.95136 0.186313 2.80469 0.33298C2.13003 1.05165 1.61669 1.86748 1.26469 2.78048C0.912693 3.69348 0.744026 4.64131 0.758692 5.62398C0.773359 6.57731 0.958526 7.48665 1.31419 8.35198C1.66986 9.21731 2.17403 9.99465 2.82669 10.684C2.69469 11.19 2.59936 11.6666 2.54069 12.114C2.53336 12.2093 2.55903 12.2991 2.61769 12.3835C2.67636 12.4678 2.75703 12.5173 2.85969 12.532H2.91469C3.00269 12.532 3.08153 12.5026 3.15119 12.444C3.22086 12.3853 3.25936 12.3083 3.26669 12.213C3.33269 11.707 3.43169 11.212 3.56369 10.728C3.58569 10.706 3.59669 10.6766 3.59669 10.64C3.92669 9.49598 4.42903 8.42898 5.10369 7.43898C5.76369 6.47098 6.56119 5.62765 7.49619 4.90898C8.43119 4.19031 9.45236 3.63298 10.5597 3.23698C11.7037 2.83365 12.8807 2.62465 14.0907 2.60998C14.1274 2.60998 14.1622 2.62465 14.1952 2.65398C14.2282 2.68331 14.2484 2.71631 14.2557 2.75298C14.5197 4.47631 14.527 6.19231 14.2777 7.90098L14.2667 7.94498C14.01 9.03031 13.5444 10.0148 12.8697 10.8985C12.195 11.7821 11.37 12.488 10.3947 13.016C9.52936 13.4853 8.61269 13.7805 7.64469 13.9015C6.67669 14.0225 5.71969 13.9656 4.77369 13.731C5.48503 13.2543 6.09736 12.7923 6.61069 12.345C8.16536 11.003 9.44136 9.45565 10.4387 7.70298C10.49 7.62231 10.5029 7.53248 10.4772 7.43348C10.4515 7.33448 10.3947 7.25931 10.3067 7.20798C10.2187 7.15665 10.127 7.14381 10.0317 7.16948C9.93636 7.19515 9.86303 7.25198 9.81169 7.33998C9.07836 8.60865 8.19469 9.76731 7.16069 10.816C6.12669 11.8646 4.98269 12.7666 3.72869 13.522L3.69569 13.533C2.91836 14.0023 2.07503 14.413 1.16569 14.765C1.07769 14.8016 1.01353 14.8658 0.973192 14.9575C0.932859 15.0491 0.931026 15.1426 0.967692 15.238C0.997026 15.3113 1.04103 15.37 1.09969 15.414C1.15836 15.458 1.22803 15.48 1.30869 15.48C1.35269 15.48 1.39669 15.469 1.44069 15.447C2.32803 15.1023 3.16036 14.699 3.93769 14.237C4.81036 14.5376 5.72336 14.688 6.67669 14.688C7.38069 14.688 8.07736 14.6018 8.76669 14.4295C9.45603 14.2571 10.1124 14.0023 10.7357 13.665C11.799 13.0856 12.6974 12.3193 13.4307 11.366C14.164 10.4126 14.67 9.34931 14.9487 8.17598C14.9707 8.13931 14.9817 8.10631 14.9817 8.07698C15.2604 6.25831 15.2567 4.44331 14.9707 2.63198ZM4.43269 7.09798C4.41803 6.59931 4.39969 6.23265 4.37769 5.99798C4.31903 5.30865 4.19069 4.50931 3.99269 3.59998C3.97069 3.50465 3.91753 3.42948 3.83319 3.37448C3.74886 3.31948 3.65536 3.30298 3.55269 3.32498C3.45003 3.34698 3.37303 3.40015 3.32169 3.48448C3.27036 3.56881 3.25569 3.65865 3.27769 3.75398C3.46103 4.58998 3.58386 5.36365 3.64619 6.07498C3.70853 6.78631 3.71403 7.56731 3.66269 8.41798C3.43536 8.87265 3.23736 9.35298 3.06869 9.85898C2.34269 8.99365 1.86236 8.01465 1.62769 6.92198C1.39303 5.85131 1.41869 4.78431 1.70469 3.72098C2.00536 2.63565 2.54803 1.67498 3.33269 0.838981C3.35469 0.809647 3.38403 0.794981 3.42069 0.794981C3.45736 0.794981 3.49403 0.802314 3.53069 0.81698C4.31536 1.28631 4.92403 1.91515 5.35669 2.70348C5.78936 3.49181 5.99103 4.34065 5.96169 5.24998C5.38969 5.81465 4.88003 6.43065 4.43269 7.09798Z" fill="#5B8C51"/>
</svg>
