<svg width="41" height="41" viewBox="0 0 41 41" fill="none" xmlns="http://www.w3.org/2000/svg">
<g clip-path="url(#clip0_1_1781)">
<path d="M18.4811 8.49223L11.1734 22.082L6.9426 23.2358C7.39132 22.3811 7.95756 21.6226 8.64132 20.9602C9.30371 20.3405 10.0088 20.0307 10.7567 20.0307C12.5516 20.0307 14.1862 20.7892 15.6605 22.3063C17.1349 23.8234 17.8721 25.7038 17.8721 27.9474C17.8721 30.3619 17.0494 32.4452 15.4041 34.1974C13.7588 35.9495 11.7289 36.8256 9.31439 36.8256C6.98533 36.8256 4.95542 35.9709 3.22465 34.2615C1.49388 32.5521 0.63918 30.4474 0.660547 27.9474C0.660547 27.0072 0.863539 25.864 1.26952 24.5179C1.6755 23.1717 2.43405 21.473 3.54516 19.4217L11.4939 4.77428L18.4811 8.49223ZM40.6605 8.49223L33.3208 22.082L29.1221 23.2358C29.5494 22.4025 30.0943 21.6439 30.7567 20.9602C31.3764 20.3405 32.1029 20.0307 32.9362 20.0307C34.7097 20.0307 36.3336 20.7892 37.808 22.3063C39.2823 23.8234 40.0195 25.7038 40.0195 27.9474C40.0195 30.3619 39.1862 32.4452 37.5195 34.1974C35.8529 35.9495 33.8016 36.8256 31.3657 36.8256C29.1007 36.8256 27.1135 35.9709 25.4041 34.2615C23.6947 32.5521 22.8294 30.4474 22.808 27.9474C22.808 26.9858 23.0217 25.8427 23.449 24.5179C23.8764 23.1931 24.6242 21.4944 25.6926 19.4217L33.6413 4.77428L40.6605 8.49223Z" fill="#404A3D"/>
</g>
<defs>
<clipPath id="clip0_1_1781">
<rect width="40" height="40" fill="white" transform="matrix(1 0 0 -1 0.660156 40.7999)"/>
</clipPath>
</defs>
</svg>
