<svg width="51" height="50" viewBox="0 0 51 50" fill="none" xmlns="http://www.w3.org/2000/svg">
<path d="M21.3237 20.3333C22.2126 20.3333 22.9626 20.0278 23.5737 19.4167C24.1848 18.8056 24.4904 18.0556 24.4904 17.1667C24.4904 16.2778 24.1848 15.5278 23.5737 14.9167C22.9626 14.3056 22.2126 14 21.3237 14C20.4348 14 19.6848 14.3056 19.0737 14.9167C18.4626 15.5278 18.157 16.2778 18.157 17.1667C18.157 18.0556 18.4626 18.8056 19.0737 19.4167C19.6848 20.0278 20.4348 20.3333 21.3237 20.3333ZM21.3237 15.6667C21.7681 15.6667 22.1292 15.8056 22.407 16.0833C22.6848 16.3611 22.8237 16.7222 22.8237 17.1667C22.8237 17.6111 22.6848 18 22.407 18.3333C22.1292 18.6667 21.7681 18.8056 21.3237 18.75C20.8792 18.6944 20.4904 18.5278 20.157 18.25C19.8237 17.9722 19.657 17.6111 19.657 17.1667C19.657 16.7222 19.8237 16.3611 20.157 16.0833C20.4904 15.8056 20.8792 15.6667 21.3237 15.6667ZM30.657 23.5C29.7681 23.5 29.0181 23.8056 28.407 24.4167C27.7959 25.0278 27.4904 25.75 27.4904 26.5833C27.4904 27.4167 27.7959 28.1389 28.407 28.75C29.0181 29.3611 29.7681 29.6667 30.657 29.6667C31.5459 29.6667 32.2959 29.3611 32.907 28.75C33.5181 28.1389 33.8237 27.4167 33.8237 26.5833C33.8237 25.75 33.5181 25.0278 32.907 24.4167C32.2959 23.8056 31.5459 23.5 30.657 23.5ZM30.657 28.1667C30.2126 28.1667 29.8515 28 29.5737 27.6667C29.2959 27.3333 29.157 26.9444 29.157 26.5C29.157 26.0556 29.2959 25.6944 29.5737 25.4167C29.8515 25.1389 30.2126 25 30.657 25C31.1015 25 31.4904 25.1389 31.8237 25.4167C32.157 25.6944 32.3237 26.0556 32.3237 26.5C32.3237 26.9444 32.157 27.3333 31.8237 27.6667C31.4904 28 31.1015 28.1667 30.657 28.1667ZM32.9904 17.1667C32.9904 16.5 32.7681 15.9444 32.3237 15.5C31.8792 15.0556 31.3237 14.8333 30.657 14.8333C29.9904 14.8333 29.4348 15.0556 28.9904 15.5L19.657 24.8333C19.1015 25.2778 18.8237 25.8333 18.8237 26.5C18.8237 27.1667 19.0737 27.75 19.5737 28.25C20.0737 28.75 20.657 29 21.3237 29C21.9904 29 22.5459 28.7778 22.9904 28.3333L32.3237 18.8333C32.7681 18.3889 32.9904 17.8333 32.9904 17.1667ZM31.157 17.6667C28.6015 20.2222 25.5459 23.3889 21.9904 27.1667C21.7681 27.3889 21.5459 27.5 21.3237 27.5C21.1015 27.5 20.907 27.4167 20.7404 27.25C20.5737 27.0833 20.4904 26.8611 20.4904 26.5833C20.4904 26.3056 20.5459 26.1111 20.657 26C24.4348 22.3333 27.6015 19.2222 30.157 16.6667C30.2681 16.4444 30.4348 16.3333 30.657 16.3333C30.8792 16.3333 31.0737 16.4167 31.2404 16.5833C31.407 16.75 31.4904 16.9444 31.4904 17.1667C31.4904 17.3889 31.3792 17.5556 31.157 17.6667ZM48.9904 37.6667C49.5459 37 49.5737 36.2778 49.0737 35.5C48.5737 34.7222 47.8792 34.3333 46.9904 34.3333H41.657V32.8333C41.657 32.6111 41.5459 32.4167 41.3237 32.25C41.1015 32.0833 40.8792 32 40.657 32C41.2126 31.4444 41.7681 31 42.3237 30.6667C43.1015 30.1111 43.6015 29.6667 43.8237 29.3333C44.3792 28.7778 44.7404 28.2222 44.907 27.6667C45.0737 27.1111 45.1015 26.4444 44.9904 25.6667C44.9904 25.3333 44.8792 24.7222 44.657 23.8333C44.3237 23.0556 44.157 22.2778 44.157 21.5C44.157 20.7222 44.3237 19.9444 44.657 19.1667C44.8792 18.2778 44.9904 17.6111 44.9904 17.1667C45.1015 16.5 45.0737 15.8889 44.907 15.3333C44.7404 14.7778 44.3792 14.2222 43.8237 13.6667C43.6015 13.3333 43.1292 12.9167 42.407 12.4167C41.6848 11.9167 41.1015 11.3611 40.657 10.75C40.2126 10.1389 39.8792 9.44444 39.657 8.66666C39.4348 7.88889 39.2126 7.27777 38.9904 6.83333C38.657 6.16666 38.2404 5.66666 37.7404 5.33333C37.2404 5 36.657 4.77777 35.9904 4.66666C35.5459 4.55555 34.8792 4.5 33.9904 4.5H33.8237C33.0459 4.5 32.2959 4.38889 31.5737 4.16666C30.8515 3.94444 30.157 3.58333 29.4904 3.08333C28.8237 2.58333 28.3237 2.22222 27.9904 2C27.3237 1.66666 26.657 1.5 25.9904 1.5C25.3237 1.5 24.657 1.66666 23.9904 2C23.657 2.22222 23.157 2.58333 22.4904 3.08333C21.8237 3.58333 21.1292 3.94444 20.407 4.16666C19.6848 4.38889 18.8792 4.5 17.9904 4.5C17.1015 4.5 16.4904 4.55555 16.157 4.66666C15.3792 4.77777 14.7404 5 14.2404 5.33333C13.7404 5.66666 13.3237 6.16666 12.9904 6.83333C12.7681 7.27777 12.5459 7.88889 12.3237 8.66666C12.1015 9.44444 11.7681 10.1389 11.3237 10.75C10.8792 11.3611 10.3237 11.8889 9.65702 12.3333C8.87924 12.8889 8.37924 13.3333 8.15702 13.6667C7.60147 14.2222 7.24035 14.7778 7.07369 15.3333C6.90702 15.8889 6.87924 16.5 6.99035 17.1667C6.99035 17.6111 7.10147 18.2778 7.32369 19.1667H7.49035C7.71258 19.9444 7.82369 20.7222 7.82369 21.5C7.82369 22.2778 7.65702 23.0556 7.32369 23.8333C7.10147 24.7222 6.99035 25.3333 6.99035 25.6667C6.87924 26.4444 6.90702 27.1111 7.07369 27.6667C7.24035 28.2222 7.60147 28.7778 8.15702 29.3333C8.37924 29.6667 8.82369 30.0556 9.49035 30.5C10.157 30.9444 10.7681 31.4444 11.3237 32C11.1015 32 10.8792 32.0833 10.657 32.25C10.4348 32.4167 10.3237 32.6111 10.3237 32.8333V34.3333H4.99035C4.10147 34.3333 3.40702 34.7222 2.90702 35.5C2.40702 36.2778 2.4348 37 2.99035 37.6667L5.99035 41.1667C6.10147 41.2778 6.10147 41.4444 5.99035 41.6667L2.99035 45C2.4348 45.7778 2.40702 46.5556 2.90702 47.3333C3.40702 48.1111 4.10147 48.5 4.99035 48.5H15.8237C16.0459 48.5 16.2404 48.4167 16.407 48.25C16.5737 48.0833 16.657 47.8889 16.657 47.6667V45.3333H35.3237V47.6667C35.3237 47.8889 35.407 48.0833 35.5737 48.25C35.7404 48.4167 35.9348 48.5 36.157 48.5H46.9904C47.9904 48.5 48.7126 48.0556 49.157 47.1667C49.3792 46.8333 49.4626 46.4722 49.407 46.0833C49.3515 45.6944 49.2126 45.3333 48.9904 45L45.9904 41.6667C45.8792 41.4444 45.8792 41.2778 45.9904 41.1667L48.9904 37.6667ZM10.657 29.3333L9.32369 28.3333C8.87924 27.8889 8.60147 27.5 8.49035 27.1667C8.37924 26.8333 8.37924 26.3889 8.49035 25.8333L8.82369 24.3333C9.15702 23.4444 9.32369 22.5 9.32369 21.5C9.32369 20.5 9.15702 19.5556 8.82369 18.6667L8.49035 17.1667C8.37924 16.6111 8.37924 16.1667 8.49035 15.8333C8.60147 15.5 8.87924 15.1111 9.32369 14.6667L10.657 13.6667C11.3237 13.1111 11.9348 12.4722 12.4904 11.75C13.0459 11.0278 13.4904 10.1667 13.8237 9.16666L14.3237 7.66666C14.5459 7.22222 14.8237 6.88889 15.157 6.66666C15.4904 6.44444 15.9348 6.27777 16.4904 6.16666L18.157 6C19.0459 6.11111 19.9348 6.02777 20.8237 5.75C21.7126 5.47222 22.4904 5.05555 23.157 4.5L24.657 3.5C25.1015 3.27777 25.5459 3.16666 25.9904 3.16666C26.4348 3.16666 26.8792 3.27777 27.3237 3.5L28.8237 4.5C29.4904 5.05555 30.2681 5.47222 31.157 5.75C32.0459 6.02777 32.9348 6.11111 33.8237 6L35.4904 6.16666C36.0459 6.27777 36.5181 6.47222 36.907 6.75C37.2959 7.02777 37.7126 7.83333 38.157 9.16666C38.4904 10.1667 38.9348 11.0278 39.4904 11.75C40.0459 12.4722 40.657 13.1111 41.3237 13.6667L42.657 14.6667C43.1015 15 43.3792 15.3611 43.4904 15.75C43.6015 16.1389 43.6015 16.6111 43.4904 17.1667L43.157 18.6667C42.8237 19.5556 42.657 20.4722 42.657 21.4167C42.657 22.3611 42.8237 23.3333 43.157 24.3333L43.4904 25.8333C43.6015 26.3889 43.6015 26.8333 43.4904 27.1667C43.3792 27.5 43.1015 27.8889 42.657 28.3333L41.3237 29.3333C40.657 29.8889 39.9904 30.5 39.3237 31.1667L38.8237 32H35.8237C38.0459 30 39.4626 27.5556 40.0737 24.6667C40.6848 21.7778 40.4626 18.9444 39.407 16.1667C38.3515 13.3889 36.6015 11.1667 34.157 9.5C31.7126 7.83333 28.9904 7 25.9904 7C22.9904 7 20.2681 7.83333 17.8237 9.5C15.3792 11.1667 13.6292 13.3889 12.5737 16.1667C11.5181 18.9444 11.2959 21.7778 11.907 24.6667C12.5181 27.5556 13.9348 30 16.157 32H13.157L12.657 31.1667C11.9904 30.5 11.3237 29.8889 10.657 29.3333ZM33.3237 32H18.657C16.3237 30.4444 14.7126 28.3333 13.8237 25.6667C12.9348 23 12.907 20.3056 13.7404 17.5833C14.5737 14.8611 16.1292 12.6944 18.407 11.0833C20.6848 9.47222 23.2126 8.66666 25.9904 8.66666C28.7681 8.66666 31.2959 9.47222 33.5737 11.0833C35.8515 12.6944 37.407 14.8611 38.2404 17.5833C39.0737 20.3056 39.0459 23 38.157 25.6667C37.2681 28.3333 35.657 30.4444 33.3237 32ZM4.99035 46.8333C4.65702 46.8333 4.40702 46.75 4.24035 46.5833C4.07369 46.4167 4.04591 46.2222 4.15702 46L7.32369 42.5C7.54591 42.1667 7.65702 41.8056 7.65702 41.4167C7.65702 41.0278 7.54591 40.6667 7.32369 40.3333L4.15702 36.8333C4.04591 36.6111 4.07369 36.4167 4.24035 36.25C4.40702 36.0833 4.65702 36 4.99035 36H10.3237V44.5C10.3237 44.8333 10.4348 45.0556 10.657 45.1667L13.3237 46.8333H4.99035ZM14.9904 46.1667L13.657 45.3333H14.9904V46.1667ZM11.9904 43.6667V33.6667H39.9904V43.6667H11.9904ZM36.9904 46.1667V45.3333H38.3237L36.9904 46.1667ZM44.8237 42.6667L47.8237 46C47.9348 46.2222 47.907 46.4167 47.7404 46.5833C47.5737 46.75 47.3237 46.8333 46.9904 46.8333H38.657L41.3237 45.1667C41.5459 45.0556 41.657 44.8333 41.657 44.5V36H46.9904C47.3237 36 47.5737 36.0833 47.7404 36.25C47.907 36.4167 47.9348 36.6111 47.8237 36.8333C46.8237 37.9444 45.8237 39.0556 44.8237 40.1667C44.4904 40.5 44.3237 40.8889 44.3237 41.3333C44.3237 41.7778 44.4904 42.2222 44.8237 42.6667Z" fill="#404A3D"/>
</svg>
