<svg width="36" height="36" viewBox="0 0 36 36" fill="none" xmlns="http://www.w3.org/2000/svg">
<g filter="url(#filter0_d_1_1432)">
<path d="M34.67 27.485L27.567 22.76C27.1238 22.4567 26.6339 22.3517 26.0974 22.445C25.5609 22.5383 25.1294 22.795 24.8028 23.215L22.7384 25.875C22.6217 26.0383 22.4526 26.1492 22.231 26.2075C22.0094 26.2658 21.8053 26.2367 21.6187 26.12L21.0938 25.84C20.1841 25.3267 19.4026 24.825 18.7495 24.335C17.6531 23.5183 16.4168 22.4217 15.0405 21.045C13.6643 19.6683 12.5679 18.4317 11.7515 17.335C11.2616 16.6817 10.7601 15.9 10.2469 14.99L9.96697 14.465C9.85034 14.2783 9.82118 14.0742 9.8795 13.8525C9.93781 13.6308 10.0486 13.4617 10.2119 13.345L12.8712 11.28C13.291 10.9533 13.5476 10.5217 13.6409 9.985C13.7342 9.44833 13.6293 8.95833 13.326 8.515L8.60236 1.41C8.27578 0.943333 7.84424 0.651665 7.30772 0.535C6.77121 0.418335 6.26968 0.5 5.80314 0.779999L2.86397 2.565C1.90758 3.125 1.26609 3.95333 0.939515 5.05C0.54296 6.54333 0.484643 8.15333 0.764564 9.88C1.13779 12.0267 2.03587 14.3017 3.45881 16.705C5.11501 19.505 7.48267 22.445 10.5618 25.525C14.2008 29.165 17.6415 31.8133 20.8839 33.47C23.5198 34.8233 25.9925 35.5 28.3018 35.5C29.2815 35.5 30.1913 35.3833 31.031 35.15C32.1274 34.8233 32.9555 34.1817 33.5153 33.225L35.2998 30.285C35.5798 29.8183 35.6614 29.3167 35.5448 28.78C35.4281 28.2433 35.1365 27.8117 34.67 27.485ZM34.2851 29.69L32.5006 32.63C32.0807 33.3533 31.4859 33.82 30.7161 34.03C29.3398 34.4033 27.8469 34.45 26.2374 34.17C24.2313 33.7967 22.0969 32.9217 19.8342 31.545C17.1749 29.935 14.3641 27.6483 11.4016 24.685C7.10944 20.3917 4.24025 16.425 2.79399 12.785C1.69763 10.0317 1.4527 7.55833 2.0592 5.365C2.31579 4.57167 2.78233 3.97667 3.45881 3.58L6.43297 1.795C6.61958 1.67833 6.82952 1.64333 7.06279 1.69C7.29606 1.73667 7.48267 1.865 7.62263 2.075L10.1769 5.925L12.3463 9.145C12.4629 9.33167 12.5038 9.54167 12.4688 9.775C12.4338 10.0083 12.323 10.195 12.1364 10.335L9.47711 12.4C9.08055 12.7033 8.82979 13.1058 8.72482 13.6075C8.61985 14.1092 8.69566 14.5817 8.95226 15.025L9.1622 15.41C9.67539 16.3667 10.1886 17.195 10.7018 17.895C11.5415 19.0617 12.7079 20.3917 14.2008 21.885C15.6937 23.3783 17.0233 24.545 18.1897 25.385C18.8895 25.8983 19.7176 26.4117 20.674 26.925L21.0588 27.135C21.5021 27.3917 21.9744 27.4675 22.4759 27.3625C22.9775 27.2575 23.3799 27.0067 23.6831 26.61L25.7125 23.95C25.8758 23.7633 26.0741 23.6525 26.3074 23.6175C26.5406 23.5825 26.7506 23.6233 26.9372 23.74L34.0052 28.465C34.2151 28.605 34.3434 28.7917 34.3901 29.025C34.4367 29.2583 34.4018 29.48 34.2851 29.69ZM20.429 6.345C22.2252 6.345 23.893 6.8 25.4326 7.71C26.9255 8.57333 28.1035 9.75167 28.9666 11.245C29.8764 12.785 30.3312 14.4533 30.3312 16.25C30.3312 16.4133 30.3896 16.5533 30.5062 16.67C30.6228 16.7867 30.7628 16.845 30.9261 16.845C31.0894 16.845 31.2235 16.7867 31.3285 16.67C31.4334 16.5533 31.4859 16.4133 31.4859 16.25C31.4859 14.2433 30.9844 12.3767 29.9813 10.65C29.0016 8.99333 27.672 7.675 25.9925 6.695C24.2896 5.66833 22.4351 5.155 20.429 5.155C20.2657 5.155 20.1258 5.21333 20.0091 5.33C19.8925 5.44667 19.8342 5.58667 19.8342 5.75C19.8342 5.91333 19.8925 6.05333 20.0091 6.17C20.1258 6.28667 20.2657 6.345 20.429 6.345ZM20.429 9.845C21.5954 9.845 22.6684 10.1308 23.6481 10.7025C24.6278 11.2742 25.4035 12.05 25.975 13.03C26.5465 14.01 26.8322 15.0833 26.8322 16.25C26.8322 16.4133 26.8905 16.5533 27.0072 16.67C27.1238 16.7867 27.2638 16.845 27.4271 16.845C27.5903 16.845 27.7245 16.7867 27.8294 16.67C27.9344 16.5533 27.9869 16.4133 27.9869 16.25C27.9869 14.8733 27.6487 13.6017 26.9722 12.435C26.2957 11.2683 25.3801 10.3467 24.2255 9.67C23.0708 8.99333 21.8053 8.655 20.429 8.655C20.2657 8.655 20.1258 8.71333 20.0091 8.83C19.8925 8.94667 19.8342 9.08667 19.8342 9.25C19.8342 9.41333 19.8925 9.55333 20.0091 9.67C20.1258 9.78667 20.2657 9.845 20.429 9.845ZM20.429 13.345C21.2455 13.345 21.9336 13.625 22.4934 14.185C23.0533 14.745 23.3332 15.4333 23.3332 16.25C23.3332 16.4133 23.3915 16.5533 23.5082 16.67C23.6248 16.7867 23.7648 16.845 23.928 16.845C24.0913 16.845 24.2255 16.7867 24.3304 16.67C24.4354 16.5533 24.4879 16.4133 24.4879 16.25C24.4879 15.5033 24.3071 14.8208 23.9455 14.2025C23.584 13.5842 23.0883 13.0883 22.4585 12.715C21.8286 12.3417 21.1522 12.155 20.429 12.155C20.2657 12.155 20.1258 12.2133 20.0091 12.33C19.8925 12.4467 19.8342 12.5867 19.8342 12.75C19.8342 12.9133 19.8925 13.0533 20.0091 13.17C20.1258 13.2867 20.2657 13.345 20.429 13.345Z" fill="#5B8C51"/>
</g>
<defs>
<filter id="filter0_d_1_1432" x="-3.40918" y="0.483398" width="43.0059" height="43.0166" filterUnits="userSpaceOnUse" color-interpolation-filters="sRGB">
<feFlood flood-opacity="0" result="BackgroundImageFix"/>
<feColorMatrix in="SourceAlpha" type="matrix" values="0 0 0 0 0 0 0 0 0 0 0 0 0 0 0 0 0 0 127 0" result="hardAlpha"/>
<feOffset dy="4"/>
<feGaussianBlur stdDeviation="2"/>
<feComposite in2="hardAlpha" operator="out"/>
<feColorMatrix type="matrix" values="0 0 0 0 0 0 0 0 0 0 0 0 0 0 0 0 0 0 0.25 0"/>
<feBlend mode="normal" in2="BackgroundImageFix" result="effect1_dropShadow_1_1432"/>
<feBlend mode="normal" in="SourceGraphic" in2="effect1_dropShadow_1_1432" result="shape"/>
</filter>
</defs>
</svg>
