<svg width="51" height="50" viewBox="0 0 51 50" fill="none" xmlns="http://www.w3.org/2000/svg">
<path d="M50.6567 12.4999L38.6567 5.66658L31.1567 1.33325C30.8234 1.11103 30.5456 1.11103 30.3234 1.33325L10.8234 12.4999C10.4901 12.611 10.3234 12.8333 10.3234 13.1666V28.4999C8.87897 28.611 7.49008 29.0555 6.15675 29.8333C3.7123 31.2777 2.12897 33.361 1.40675 36.0833C0.684525 38.8055 1.01786 41.361 2.40675 43.7499C3.79564 46.1388 5.82341 47.7221 8.49008 48.4999C9.37897 48.7221 10.2679 48.8333 11.1567 48.8333C12.9345 48.8333 14.6567 48.3888 16.3234 47.4999C18.4345 46.2777 19.9345 44.4999 20.8234 42.1666L30.3234 47.6666C30.4345 47.6666 30.5456 47.6666 30.6567 47.6666C30.7679 47.6666 30.9345 47.6666 31.1567 47.6666L50.6567 36.3333C50.879 36.2221 50.9901 35.9999 50.9901 35.6666V13.1666C50.9901 12.8333 50.879 12.611 50.6567 12.4999ZM13.8234 28.8333C13.1567 28.611 12.5456 28.4999 11.9901 28.4999V14.4999L17.8234 17.9999V25.1666C17.8234 25.3888 17.9901 25.611 18.3234 25.8333L22.8234 28.3333C22.9345 28.4444 23.0456 28.4999 23.1567 28.4999C23.2679 28.4999 23.4345 28.4444 23.6567 28.3333C23.879 28.2221 23.9901 27.9999 23.9901 27.6666V21.4999L29.9901 24.9999L29.8234 25.3333L29.9901 45.6666L21.1567 40.4999C21.7123 37.9444 21.2679 35.5277 19.8234 33.2499C18.379 30.9721 16.379 29.4999 13.8234 28.8333ZM41.1567 8.83325L22.8234 19.4999C22.6012 19.611 22.4345 19.7777 22.3234 19.9999V26.3333L19.4901 24.6666V17.9999L38.1567 7.16658L41.1567 8.83325ZM30.6567 23.4999L24.6567 20.1666L42.6567 9.66658L48.6567 13.1666L30.6567 23.4999ZM30.6567 2.83325L36.6567 6.33325L18.6567 16.6666L12.6567 13.1666L30.6567 2.83325ZM15.4901 46.1666C13.379 47.2777 11.1845 47.5277 8.90675 46.9166C6.62897 46.3055 4.90675 44.9721 3.74008 42.9166C2.57341 40.861 2.29564 38.6944 2.90675 36.4166C3.51786 34.1388 4.82341 32.3888 6.82341 31.1666C8.15675 30.3888 9.60119 29.9999 11.1567 29.9999C11.9345 29.9999 12.7123 30.111 13.4901 30.3333C15.7123 30.8888 17.4345 32.2221 18.6567 34.3333C19.879 36.4444 20.1845 38.6388 19.5734 40.9166C18.9623 43.1944 17.6012 44.9444 15.4901 46.1666ZM31.4901 45.6666C31.4901 45.5555 31.4901 45.4999 31.4901 45.4999V25.3333L31.3234 24.9999L49.4901 14.4999V35.1666L31.4901 45.6666ZM16.6567 39.6666C16.6567 40.7777 16.2956 41.6944 15.5734 42.4166C14.8512 43.1388 13.9345 43.4999 12.8234 43.4999H11.1567C10.9345 43.4999 10.7401 43.4166 10.5734 43.2499C10.4067 43.0833 10.3234 42.9166 10.3234 42.7499C10.3234 42.5833 10.4067 42.4166 10.5734 42.2499C10.7401 42.0833 10.9345 41.9999 11.1567 41.9999H12.8234C13.4901 41.9999 14.0456 41.7777 14.4901 41.3333C14.9345 40.8888 15.1567 40.361 15.1567 39.7499C15.1567 39.1388 14.9345 38.611 14.4901 38.1666C14.0456 37.7221 13.4901 37.4999 12.8234 37.4999H8.32341L9.15675 38.1666C9.26786 38.2777 9.32341 38.4444 9.32341 38.6666C9.32341 38.8888 9.24008 39.0833 9.07341 39.2499C8.90675 39.4166 8.7123 39.4999 8.49008 39.4999C8.26786 39.4999 8.10119 39.4444 7.99008 39.3333L5.82341 37.1666C5.7123 37.0555 5.65675 36.8888 5.65675 36.6666C5.65675 36.4444 5.7123 36.2777 5.82341 36.1666L7.99008 33.9999C8.10119 33.8888 8.26786 33.8333 8.49008 33.8333C8.7123 33.8333 8.90675 33.8888 9.07341 33.9999C9.24008 34.111 9.32341 34.2777 9.32341 34.4999C9.32341 34.7221 9.26786 34.9444 9.15675 35.1666L8.32341 35.8333H12.8234C13.9345 35.8333 14.8512 36.2221 15.5734 36.9999C16.2956 37.7777 16.6567 38.6666 16.6567 39.6666Z" fill="#404A3D"/>
</svg>
