<svg width="51" height="50" viewBox="0 0 51 50" fill="none" xmlns="http://www.w3.org/2000/svg">
<g clip-path="url(#clip0_1_1490)">
<path d="M47.4902 22.6666L46.1569 17.3333C46.6013 17.3333 46.8236 17.111 46.8236 16.6666V15.8333C46.8236 14.9444 46.4902 14.1666 45.8236 13.4999C45.1569 12.8333 44.3791 12.4999 43.4902 12.4999H37.6569V10.8333C37.6569 10.3888 37.4902 9.99992 37.1569 9.66658C36.8236 9.33325 36.4347 9.16658 35.9902 9.16658H5.99023C5.54579 9.16658 5.1569 9.33325 4.82357 9.66658C4.49023 9.99992 4.32357 10.3888 4.32357 10.8333V24.9999C4.32357 25.2221 4.4069 25.4166 4.57357 25.5833C4.74023 25.7499 4.93468 25.8333 5.1569 25.8333C5.37912 25.8333 5.54579 25.7499 5.6569 25.5833C5.76801 25.4166 5.82357 25.2221 5.82357 24.9999V10.8333H5.99023H35.9902V24.9999C35.9902 25.2221 36.0736 25.4166 36.2402 25.5833C36.4069 25.7499 36.6013 25.8333 36.8236 25.8333C37.0458 25.8333 37.2402 25.7499 37.4069 25.5833C37.5736 25.4166 37.6569 25.2221 37.6569 24.9999V24.1666H46.8236C47.3791 24.1666 47.8791 24.3333 48.3236 24.6666C48.768 24.9999 49.1013 25.3888 49.3236 25.8333H46.8236C46.6013 25.8333 46.4347 25.9166 46.3236 26.0833C46.2125 26.2499 46.1569 26.4444 46.1569 26.6666V28.3333C46.1569 28.9999 46.3791 29.5833 46.8236 30.0833C47.268 30.5833 47.8236 30.8333 48.4902 30.8333H49.4902V34.1666H47.3236C46.9902 33.2777 46.4069 32.4999 45.5736 31.8333C44.7402 31.1666 43.7958 30.8333 42.7402 30.8333C41.6847 30.8333 40.7125 31.1666 39.8236 31.8333C38.9347 32.4999 38.3236 33.2777 37.9902 34.1666H37.6569V28.3333C37.6569 28.111 37.5736 27.9166 37.4069 27.7499C37.2402 27.5833 37.0458 27.4999 36.8236 27.4999C36.6013 27.4999 36.4069 27.5833 36.2402 27.7499C36.0736 27.9166 35.9902 28.111 35.9902 28.3333V34.1666H19.8236C19.4902 33.2777 18.8791 32.4999 17.9902 31.8333C17.1013 31.1666 16.1291 30.8333 15.0736 30.8333C14.018 30.8333 13.0736 31.1666 12.2402 31.8333C11.4069 32.4999 10.8236 33.2777 10.4902 34.1666H5.99023H5.82357V32.4999H9.32357C9.54579 32.4999 9.71246 32.4166 9.82357 32.2499C9.93468 32.0833 9.99023 31.8888 9.99023 31.6666C9.99023 31.4444 9.93468 31.2499 9.82357 31.0833C9.71246 30.9166 9.54579 30.8333 9.32357 30.8333H1.82357C1.60135 30.8333 1.4069 30.9166 1.24023 31.0833C1.07357 31.2499 0.990234 31.4444 0.990234 31.6666C0.990234 31.8888 1.07357 32.0833 1.24023 32.2499C1.4069 32.4166 1.60135 32.4999 1.82357 32.4999H4.32357V34.1666C4.32357 34.611 4.49023 34.9999 4.82357 35.3333C5.1569 35.6666 5.54579 35.8333 5.99023 35.8333H10.1569C10.1569 37.1666 10.6569 38.3333 11.6569 39.3333C12.6569 40.3333 13.8236 40.8333 15.1569 40.8333C16.4902 40.8333 17.6569 40.3333 18.6569 39.3333C19.6569 38.3333 20.1569 37.1666 20.1569 35.8333H37.6569C37.6569 37.1666 38.1569 38.3333 39.1569 39.3333C40.1569 40.3333 41.3513 40.8333 42.7402 40.8333C44.1291 40.8333 45.2958 40.3333 46.2402 39.3333C47.1847 38.3333 47.6569 37.1666 47.6569 35.8333H50.1569C50.3791 35.8333 50.5736 35.7499 50.7402 35.5833C50.9069 35.4166 50.9902 35.2221 50.9902 34.9999V26.6666C50.9902 25.6666 50.6569 24.7777 49.9902 23.9999C49.3236 23.2221 48.4902 22.7777 47.4902 22.6666ZM37.6569 14.1666H43.4902C43.9347 14.1666 44.3513 14.3333 44.7402 14.6666C45.1291 14.9999 45.3236 15.3888 45.3236 15.8333H37.6569V14.1666ZM37.6569 22.4999V17.4999H44.6569L45.8236 22.4999H37.6569ZM15.1569 39.1666C14.1569 39.1666 13.3513 38.861 12.7402 38.2499C12.1291 37.6388 11.8236 36.861 11.8236 35.9166C11.8236 34.9721 12.1291 34.1666 12.7402 33.4999C13.3513 32.8333 14.1291 32.4999 15.0736 32.4999C16.018 32.4999 16.8236 32.8333 17.4902 33.4999C18.1569 34.1666 18.4902 34.9721 18.4902 35.9166C18.4902 36.861 18.1569 37.6388 17.4902 38.2499C16.8236 38.861 16.0458 39.1666 15.1569 39.1666ZM42.6569 39.1666C41.768 39.1666 40.9902 38.861 40.3236 38.2499C39.6569 37.6388 39.3236 36.861 39.3236 35.9166C39.3236 34.9721 39.6569 34.1666 40.3236 33.4999C40.9902 32.8333 41.7958 32.4999 42.7402 32.4999C43.6847 32.4999 44.4902 32.8333 45.1569 33.4999C45.8236 34.1666 46.1569 34.9721 46.1569 35.9166C46.1569 36.861 45.8236 37.6388 45.1569 38.2499C44.4902 38.861 43.6569 39.1666 42.6569 39.1666ZM49.4902 29.1666H48.4902C48.268 29.1666 48.0736 29.0833 47.9069 28.9166C47.7402 28.7499 47.6569 28.5555 47.6569 28.3333V27.4999H49.4902V29.1666ZM15.1569 34.1666C14.7125 34.1666 14.3236 34.3333 13.9902 34.6666C13.6569 34.9999 13.4902 35.3888 13.4902 35.8333C13.4902 36.2777 13.6569 36.6666 13.9902 36.9999C14.3236 37.3333 14.7125 37.4999 15.1569 37.4999C15.6013 37.4999 15.9902 37.3333 16.3236 36.9999C16.6569 36.6666 16.8236 36.2777 16.8236 35.8333C16.8236 35.3888 16.6569 34.9999 16.3236 34.6666C15.9902 34.3333 15.6013 34.1666 15.1569 34.1666ZM42.6569 34.1666C42.2125 34.1666 41.8513 34.3333 41.5736 34.6666C41.2958 34.9999 41.1569 35.3888 41.1569 35.8333C41.1569 36.2777 41.2958 36.6666 41.5736 36.9999C41.8513 37.3333 42.2125 37.4999 42.6569 37.4999C43.1013 37.4999 43.4902 37.3333 43.8236 36.9999C44.1569 36.6666 44.3236 36.2777 44.3236 35.8333C44.3236 35.3888 44.1569 34.9999 43.8236 34.6666C43.4902 34.3333 43.1013 34.1666 42.6569 34.1666ZM33.4902 30.8333H21.8236C21.6013 30.8333 21.4069 30.9166 21.2402 31.0833C21.0736 31.2499 20.9902 31.4444 20.9902 31.6666C20.9902 31.8888 21.0736 32.0833 21.2402 32.2499C21.4069 32.4166 21.6013 32.4999 21.8236 32.4999H33.4902C33.7125 32.4999 33.9069 32.4166 34.0736 32.2499C34.2402 32.0833 34.3236 31.8888 34.3236 31.6666C34.3236 31.4444 34.2402 31.2499 34.0736 31.0833C33.9069 30.9166 33.7125 30.8333 33.4902 30.8333ZM13.4902 27.4999H3.49023C3.26801 27.4999 3.07357 27.5833 2.9069 27.7499C2.74023 27.9166 2.6569 28.111 2.6569 28.3333C2.6569 28.5555 2.74023 28.7499 2.9069 28.9166C3.07357 29.0833 3.26801 29.1666 3.49023 29.1666H13.4902C13.7125 29.1666 13.9069 29.0833 14.0736 28.9166C14.2402 28.7499 14.3236 28.5555 14.3236 28.3333C14.3236 28.111 14.2402 27.9166 14.0736 27.7499C13.9069 27.5833 13.7125 27.4999 13.4902 27.4999ZM28.1569 16.9999C28.0458 16.7777 27.8791 16.6666 27.6569 16.6666C27.4347 16.6666 27.268 16.7777 27.1569 16.9999L20.1569 23.8333L16.4902 20.3333C16.3791 20.111 16.2125 19.9999 15.9902 19.9999C15.768 19.9999 15.5736 20.0833 15.4069 20.2499C15.2402 20.4166 15.1569 20.611 15.1569 20.8333C15.1569 21.0555 15.268 21.2221 15.4902 21.3333L19.6569 25.4999C19.768 25.7221 19.9347 25.8333 20.1569 25.8333C20.3791 25.8333 20.5458 25.7221 20.6569 25.4999L28.1569 17.9999C28.3791 17.8888 28.4902 17.7221 28.4902 17.4999C28.4902 17.2777 28.3791 17.111 28.1569 16.9999Z" fill="#404A3D"/>
</g>
<defs>
<clipPath id="clip0_1_1490">
<rect width="50.02" height="50" fill="white" transform="matrix(1 0 0 -1 0.980469 50)"/>
</clipPath>
</defs>
</svg>
