<svg width="17" height="17" viewBox="0 0 17 17" fill="none" xmlns="http://www.w3.org/2000/svg">
<g clip-path="url(#clip0_1_1767)">
<path d="M8.72822 0.18396C8.79222 0.18396 8.85622 0.18396 8.92022 0.18396C9.03755 0.21596 9.14422 0.27996 9.24022 0.375959C9.83755 1.58129 10.5842 3.16529 11.4802 5.12796C13.6989 5.49063 15.3682 5.75196 16.4882 5.91196C16.6482 5.97596 16.7602 6.07729 16.8242 6.21596V6.58396C16.7389 6.72263 16.6482 6.83996 16.5522 6.93596L13.1602 10.408C13.4162 12.168 13.6882 13.928 13.9762 15.688C13.9656 15.9226 13.8536 16.088 13.6402 16.184H13.2562L11.5282 15.224C10.3336 14.552 9.43222 14.0506 8.82422 13.72L4.39222 16.184H4.00822C3.79489 16.088 3.68289 15.9226 3.67222 15.688C4.05622 13.3413 4.33355 11.5813 4.50422 10.408L1.12822 6.96796C1.05355 6.88263 0.952219 6.75463 0.824219 6.58396V6.21596C0.888219 6.06663 1.00555 5.96529 1.17622 5.91196C2.28555 5.75196 3.94955 5.49063 6.16822 5.12796C6.77622 3.80529 7.52289 2.22129 8.40822 0.375959C8.50422 0.27996 8.61089 0.21596 8.72822 0.18396Z" fill="#FDCF00"/>
</g>
<defs>
<clipPath id="clip0_1_1767">
<rect width="16" height="16" fill="white" transform="matrix(1 0 0 -1 0.839844 16.2)"/>
</clipPath>
</defs>
</svg>
