<svg width="51" height="50" viewBox="0 0 51 50" fill="none" xmlns="http://www.w3.org/2000/svg">
<path d="M48.8236 36.0001C49.268 36.0001 49.4902 35.7223 49.4902 35.1667V30.0001C49.4902 29.1112 49.2125 28.389 48.6569 27.8334C48.1013 27.2779 47.4347 27.0001 46.6569 27.0001H27.1569C26.1569 27.0001 25.3791 27.389 24.8236 28.1667C24.1569 27.5001 23.6569 26.8334 23.3236 26.1667C25.1013 25.1667 26.4347 23.6667 27.3236 21.6667C27.6569 22.0001 28.1013 22.1667 28.6569 22.1667C29.2125 22.1667 29.6569 22.0001 29.9902 21.6667C30.3236 21.3334 30.5458 20.889 30.6569 20.3334C31.6569 20.2223 32.4625 19.8334 33.0736 19.1667C33.6847 18.5001 33.9902 17.6945 33.9902 16.7501C33.9902 15.8056 33.6847 14.9723 33.0736 14.2501C32.4625 13.5279 31.6569 13.1112 30.6569 13.0001V11.1667C30.6569 9.38897 30.2125 7.75008 29.3236 6.25008C28.4347 4.75008 27.2402 3.55564 25.7402 2.66675C24.2402 1.77786 22.6013 1.33341 20.8236 1.33341H15.8236C14.0458 1.33341 12.4069 1.77786 10.9069 2.66675C9.4069 3.55564 8.21246 4.75008 7.32357 6.25008C6.43468 7.75008 5.99023 9.38897 5.99023 11.1667V13.0001C4.99023 13.1112 4.18468 13.5279 3.57357 14.2501C2.96246 14.9723 2.6569 15.8056 2.6569 16.7501C2.6569 17.6945 2.96246 18.5001 3.57357 19.1667C4.18468 19.8334 4.99023 20.2223 5.99023 20.3334C5.99023 20.7779 6.18468 21.1945 6.57357 21.5834C6.96246 21.9723 7.4069 22.1667 7.9069 22.1667C8.4069 22.1667 8.82357 22.0556 9.1569 21.8334C10.1569 23.8334 11.4902 25.3334 13.1569 26.3334C12.9347 26.889 12.4347 27.5001 11.6569 28.1667C9.10135 28.389 6.93468 29.4445 5.1569 31.3334C3.37912 33.2223 2.49023 35.5001 2.49023 38.1667V46.8334C2.49023 47.2779 2.6569 47.6667 2.99023 48.0001C3.32357 48.3334 3.71246 48.5001 4.1569 48.5001H15.1569C15.6013 48.5001 15.8236 48.2501 15.8236 47.7501C15.8236 47.2501 15.6013 47.0001 15.1569 47.0001H10.8236V38.6667C10.8236 38.2223 10.5736 38.0001 10.0736 38.0001C9.57357 38.0001 9.32357 38.2223 9.32357 38.6667V47.1667H4.1569C4.04579 47.1667 3.99023 47.0556 3.99023 46.8334V38.1667C3.99023 35.9445 4.74023 34.0279 6.24023 32.4167C7.74023 30.8056 9.60135 29.889 11.8236 29.6667L17.8236 35.8334C18.0458 36.0556 18.2402 36.1667 18.4069 36.1667C18.5736 36.1667 18.768 36.0556 18.9902 35.8334L24.1569 30.6667V43.6667H20.3236C19.6569 43.6667 19.1013 43.889 18.6569 44.3334C18.2125 44.7779 17.9902 45.2779 17.9902 45.8334V47.8334C17.9902 48.389 18.268 48.6667 18.8236 48.6667H48.8236C49.268 48.6667 49.4902 48.389 49.4902 47.8334V40.3334C49.4902 39.7779 49.2402 39.5001 48.7402 39.5001C48.2402 39.5001 47.9902 39.7779 47.9902 40.3334V43.8334H25.6569V30.0001C25.6569 29.5556 25.7958 29.1945 26.0736 28.9167C26.3513 28.639 26.7125 28.5001 27.1569 28.5001H46.6569C46.9902 28.5001 47.2958 28.639 47.5736 28.9167C47.8513 29.1945 47.9902 29.5556 47.9902 30.0001V35.1667C47.9902 35.7223 48.268 36.0001 48.8236 36.0001ZM47.9902 45.1667V47.0001H19.4902V45.8334C19.4902 45.6112 19.5736 45.4167 19.7402 45.2501C19.9069 45.0834 20.1013 45.0001 20.3236 45.0001L47.9902 45.1667ZM10.1569 13.5001C10.1569 11.5001 10.7402 9.94452 11.9069 8.83341C13.0736 7.7223 14.4347 7.16675 15.9902 7.16675H20.8236C22.268 7.16675 23.5458 7.63897 24.6569 8.58341C25.768 9.52786 26.4347 10.7223 26.6569 12.1667C25.3236 13.5001 24.0458 14.0556 22.8236 13.8334C22.268 13.8334 21.7402 13.6112 21.2402 13.1667C20.7402 12.7223 20.3236 12.2779 19.9902 11.8334C19.6569 11.389 19.4625 11.0834 19.4069 10.9167C19.3513 10.7501 19.1569 10.6667 18.8236 10.6667C18.4902 10.6667 18.2125 10.8334 17.9902 11.1667C17.6569 12.1667 17.1013 13.0556 16.3236 13.8334C14.6569 15.389 12.6013 15.8334 10.1569 15.1667V13.5001ZM28.8236 20.8334C28.4902 20.8334 28.3236 20.6667 28.3236 20.3334V13.6667C28.3236 13.3334 28.4902 13.1667 28.8236 13.1667C29.1569 13.1667 29.3236 13.3334 29.3236 13.6667V20.3334C29.3236 20.4445 29.268 20.5556 29.1569 20.6667C29.0458 20.7779 28.9347 20.8334 28.8236 20.8334ZM32.6569 16.6667C32.6569 17.2223 32.4902 17.7223 32.1569 18.1667C31.8236 18.6112 31.3791 18.8334 30.8236 18.8334V14.5001C31.3791 14.6112 31.8236 14.8612 32.1569 15.2501C32.4902 15.639 32.6569 16.1112 32.6569 16.6667ZM15.9902 2.83341H20.9902C23.3236 2.83341 25.2958 3.66675 26.9069 5.33341C28.518 7.00008 29.3236 8.94452 29.3236 11.1667V11.6667C28.8791 11.4445 28.4902 11.4445 28.1569 11.6667C27.8236 10.0001 26.9625 8.58341 25.5736 7.41675C24.1847 6.25008 22.6569 5.66675 20.9902 5.66675H15.9902C14.2125 5.66675 12.6569 6.2223 11.3236 7.33341C9.99023 8.44452 9.1569 9.88897 8.82357 11.6667C8.49023 11.5556 8.1569 11.5556 7.82357 11.6667V11.1667C7.71246 8.94452 8.46246 7.00008 10.0736 5.33341C11.6847 3.66675 13.6569 2.83341 15.9902 2.83341ZM4.32357 16.6667C4.32357 16.1112 4.49023 15.639 4.82357 15.2501C5.1569 14.8612 5.60135 14.6112 6.1569 14.5001V18.8334C5.60135 18.8334 5.1569 18.6112 4.82357 18.1667C4.49023 17.7223 4.32357 17.2223 4.32357 16.6667ZM8.32357 20.8334C7.99023 20.8334 7.82357 20.6667 7.82357 20.3334V13.5001C7.82357 13.2779 7.93468 13.1667 8.1569 13.1667C8.37912 13.1667 8.54579 13.2223 8.6569 13.3334L8.82357 17.0001C8.82357 19.4445 8.82357 20.5556 8.82357 20.3334C8.71246 20.6667 8.54579 20.8334 8.32357 20.8334ZM10.3236 19.5001V16.6667C10.9902 16.7779 11.6569 16.8334 12.3236 16.8334C14.9902 16.8334 17.2125 15.5001 18.9902 12.8334C19.9902 14.2779 21.1847 15.1112 22.5736 15.3334C23.9625 15.5556 25.3791 15.1112 26.8236 14.0001V19.0001H22.9902C22.8791 18.5556 22.6291 18.2223 22.2402 18.0001C21.8513 17.7779 21.4347 17.6667 20.9902 17.6667C20.5458 17.6667 20.1291 17.8612 19.7402 18.2501C19.3513 18.639 19.1569 19.1112 19.1569 19.6667C19.1569 20.2223 19.3513 20.6945 19.7402 21.0834C20.1291 21.4723 20.5458 21.6667 20.9902 21.6667C21.4347 21.6667 21.8513 21.5556 22.2402 21.3334C22.6291 21.1112 22.8791 20.8334 22.9902 20.5001H26.3236C25.768 22.1667 24.768 23.5279 23.3236 24.5834C21.8791 25.639 20.2125 26.1667 18.3236 26.1667C15.6569 26.0556 13.5458 25.0556 11.9902 23.1667C11.2125 22.1667 10.6569 21.0001 10.3236 19.6667V19.5001ZM21.6569 19.8334C21.6569 20.1667 21.4625 20.3334 21.0736 20.3334C20.6847 20.3334 20.4902 20.1667 20.4902 19.8334C20.4902 19.5001 20.6847 19.3334 21.0736 19.3334C21.4625 19.3334 21.6569 19.5001 21.6569 19.8334ZM18.4902 34.3334L13.1569 29.0001C13.9347 28.2223 14.4902 27.5001 14.8236 26.8334C15.9347 27.389 17.1569 27.6667 18.4902 27.6667C19.8236 27.6667 21.0458 27.389 22.1569 26.8334C22.3791 27.5001 22.8791 28.2223 23.6569 29.0001L18.4902 34.3334ZM32.8236 36.0001C32.8236 37.0001 33.1847 37.8612 33.9069 38.5834C34.6291 39.3056 35.4902 39.6667 36.4902 39.6667C37.4902 39.6667 38.3236 39.3056 38.9902 38.5834C39.6569 37.8612 39.9902 37.0001 39.9902 36.0001C39.9902 35.0001 39.6569 34.1667 38.9902 33.5001C38.3236 32.8334 37.4902 32.5001 36.4902 32.5001C35.4902 32.5001 34.6291 32.8334 33.9069 33.5001C33.1847 34.1667 32.8236 35.0001 32.8236 36.0001ZM38.4902 36.0001C38.4902 36.5556 38.2958 37.0556 37.9069 37.5001C37.518 37.9445 37.018 38.1667 36.4069 38.1667C35.7958 38.1667 35.2958 37.9445 34.9069 37.5001C34.518 37.0556 34.3236 36.5556 34.3236 36.0001C34.3236 35.4445 34.518 34.9445 34.9069 34.5001C35.2958 34.0556 35.7958 33.8334 36.4069 33.8334C37.018 33.8334 37.518 34.0556 37.9069 34.5001C38.2958 34.9445 38.4902 35.4445 38.4902 36.0001Z" fill="#404A3D"/>
</svg>
